<?xml version="1.0" standalone="no"?>
<!DOCTYPE svg PUBLIC "-//W3C//DTD SVG 1.1//EN" "http://www.w3.org/Graphics/SVG/1.1/DTD/svg11.dtd" >
<svg xmlns="http://www.w3.org/2000/svg">
<metadata>
Created by FontForge 20120731 at Fri Mar 27 11:19:43 2015
 By Ads
</metadata>
<defs>
<font id="iconfont" horiz-adv-x="1024" >
  <font-face 
    font-family="iconfont"
    font-weight="500"
    font-stretch="normal"
    units-per-em="1024"
    panose-1="2 0 6 3 0 0 0 0 0 0"
    ascent="812"
    descent="-212"
    x-height="792"
    bbox="-0.130435 -212 1306 812"
    underline-thickness="50"
    underline-position="-100"
    unicode-range="U+0078-E632"
  />
<missing-glyph horiz-adv-x="374" 
d="M34 0v682h272v-682h-272zM68 34h204v614h-204v-614z" />
    <glyph glyph-name=".notdef" horiz-adv-x="374" 
d="M34 0v682h272v-682h-272zM68 34h204v614h-204v-614z" />
    <glyph glyph-name=".null" horiz-adv-x="0" 
 />
    <glyph glyph-name="nonmarkingreturn" horiz-adv-x="341" 
 />
    <glyph glyph-name="x" unicode="x" horiz-adv-x="1001" 
d="M281 543q-27 -1 -53 -1h-83q-18 0 -36.5 -6t-32.5 -18.5t-23 -32t-9 -45.5v-76h912v41q0 16 -0.5 30t-0.5 18q0 13 -5 29t-17 29.5t-31.5 22.5t-49.5 9h-133v-97h-438v97zM955 310v-52q0 -23 0.5 -52t0.5 -58t-10.5 -47.5t-26 -30t-33 -16t-31.5 -4.5q-14 -1 -29.5 -0.5
t-29.5 0.5h-32l-45 128h-439l-44 -128h-29h-34q-20 0 -45 1q-25 0 -41 9.5t-25.5 23t-13.5 29.5t-4 30v167h911zM163 247q-12 0 -21 -8.5t-9 -21.5t9 -21.5t21 -8.5q13 0 22 8.5t9 21.5t-9 21.5t-22 8.5zM316 123q-8 -26 -14 -48q-5 -19 -10.5 -37t-7.5 -25t-3 -15t1 -14.5
t9.5 -10.5t21.5 -4h37h67h81h80h64h36q23 0 34 12t2 38q-5 13 -9.5 30.5t-9.5 34.5q-5 19 -11 39h-368zM336 498v228q0 11 2.5 23t10 21.5t20.5 15.5t34 6h188q31 0 51.5 -14.5t20.5 -52.5v-227h-327z" />
    <glyph glyph-name="uniE600" unicode="&#xe600;" 
d="M415 397h192v-192h-192v192z" />
    <glyph glyph-name="uniE601" unicode="&#xe601;" 
d="M369 117h107l-203 -266l-70 50zM837 812q24 0 41 -17t17 -40v-450h-766v450q0 23 17 40t41 17h650zM129 240h766v-6q0 -24 -17 -40.5t-41 -16.5h-650q-24 0 -41 16.5t-17 40.5v6zM618 117l167 -208l-68 -50l-208 258h109z" />
    <glyph glyph-name="uniE602" unicode="&#xe602;" 
d="M376 -23h-136v-76h212l-73 73zM352 157h-242v484h740v-180l53 38l56 -57v304h-958v-704h351v115zM1023 98v113l-86 14q-5 16 -13 31l51 71l-80 80l-71 -51q-15 8 -31 13l-14 86h-113l-14 -86q-16 -5 -31 -12l-71 50l-80 -80l51 -71q-8 -15 -13 -30l-86 -15v-113l86 -14
q6 -16 13 -31l-51 -71l80 -80l71 51q15 -7 31 -12l14 -87h113l14 87q16 5 31 12l71 -51l80 80l-51 71q8 15 13 31zM722.5 65q-37.5 0 -63.5 26t-26 63.5t26 64t63.5 26.5t63.5 -26.5t26 -64t-26 -63.5t-63.5 -26z" />
    <glyph glyph-name="uniE603" unicode="&#xe603;" 
d="M256 301l512 447v-895zM768 -147z" />
    <glyph glyph-name="uniE604" unicode="&#xe604;" horiz-adv-x="1000" 
d="M883 423l-50 -47v6q-45 -16 -125 -6q-21 1 -37 1.5t-33 -4t-28.5 -8t-23.5 -10t-18 -10.5t-13 -9t-8 -5v-1v-76q26 -11 26 -54l22 -262q0 -25 -21 -42t-50 -17t-50 17t-21 42l26 260q0 43 20 54v75q0 8 4 17q12 41 100 56q42 7 122.5 12.5t107.5 10.5v78q-19 -14 -43 -14
h-575q-30 0 -50.5 21t-20.5 50v126q0 29 20.5 50t50.5 21h575q30 0 51 -21t21 -50v-73h21v-188z" />
    <glyph glyph-name="uniE605" unicode="&#xe605;" 
d="M507 135l67 67l-87 87l-66 -67v-32h54v-55h32zM759 547q-9 9 -19 -1l-200 -200q-10 -9 -0.5 -18.5t18.5 0.5l200 200q10 10 1 19zM805 207v-108q0 -68 -48.5 -116.5t-116.5 -48.5h-475q-68 0 -116.5 48.5t-48.5 116.5v475q0 68 48.5 116.5t116.5 48.5h475q36 0 67 -14
q8 -4 10 -14q2 -9 -5 -16l-28 -28q-8 -8 -18 -5q-13 4 -26 4h-475q-38 0 -65 -27t-27 -65v-475q0 -38 27 -65t65 -27h475q38 0 64.5 27t26.5 65v72q0 7 6 12l36 37q9 9 20.5 4t11.5 -17zM750 629l164 -164l-384 -384h-164v164zM1003 554l-52 -53l-165 165l53 52q16 16 39 16
t39 -16l86 -87q16 -16 16 -38.5t-16 -38.5z" />
    <glyph glyph-name="uniE606" unicode="&#xe606;" 
d="M199 57.5q0 15.5 -11 26.5t-27 11h-60q-15 0 -26 -11t-11 -26.5t11 -26.5t26 -11h60q16 0 27 11t11 26.5zM101 505h60q16 0 27 11t11 26.5t-11 26.5t-27 11h-60q-15 0 -26 -11t-11 -26.5t11 -26.5t26 -11zM101 182h60q16 0 27 11t11 26.5t-11 26.5t-27 11h-60
q-15 0 -26 -11t-11 -26.5t11 -26.5t26 -11zM892 487q-6 0 -12 -2v-154q6 -2 12 -2q21 0 44.5 14.5t23.5 32.5v64q0 18 -23.5 32.5t-44.5 14.5zM892 652q-6 0 -12 -1v-155q6 -2 12 -2q21 0 44.5 14.5t23.5 32.5v64q0 18 -23.5 32.5t-44.5 14.5zM101 343h60q16 0 27 11
t11 26.5t-11 26.5t-27 11h-60q-15 0 -26 -11t-11 -26.5t11 -26.5t26 -11zM892 322q-6 0 -12 -2v-155q6 -1 12 -1q21 0 44.5 14.5t23.5 32.5v64q0 18 -23.5 32.5t-44.5 14.5zM787 724h-591q-31 0 -54 -22.5t-23 -54.5v-45h42q25 0 42.5 -17.5t17.5 -42.5t-17.5 -42.5
t-42.5 -17.5h-42v-41h42q25 0 42.5 -17.5t17.5 -42.5t-17.5 -42.5t-42.5 -17.5h-42v-42h42q25 0 42.5 -17.5t17.5 -42.5t-17.5 -42.5t-42.5 -17.5h-42v-41h42q25 0 42.5 -17.5t17.5 -42.5t-17.5 -42.5t-42.5 -17.5h-42v-45q0 -32 23 -54.5t54 -22.5h591q32 0 54.5 22.5
t22.5 54.5v694q0 32 -22.5 54.5t-54.5 22.5zM563 21h-74v74h74v-74zM680.5 351.5q-16.5 -29.5 -63.5 -71.5q-32 -28 -42 -41.5t-14.5 -30.5t-5.5 -57h-62q-1 16 -1 20q0 38 11 66q8 21 26 43q13 15 47 45t44 47.5t10 38.5q0 38 -29.5 67t-73.5 29q-41 0 -69 -26t-37 -82
l-67 8q9 75 54 114.5t118 39.5q78 0 124.5 -42.5t46.5 -102.5q0 -35 -16.5 -64.5z" />
    <glyph glyph-name="uniE607" unicode="&#xe607;" 
d="M1007 292q0 7 -4 14l-149 223q-8 12 -22 12h-107h-95q-11 0 -18.5 -7.5t-7.5 -18.5v-432q0 -11 7.5 -18.5t18.5 -7.5h55q0 -50 35.5 -85.5t85.5 -35.5t85.5 35.5t35.5 85.5h54q11 0 18.5 7.5t7.5 18.5v208v1zM725 299v161h102l108 -161h-210zM806 -4q-25 0 -43 18t-18 43
t18 42.5t43 17.5t42.5 -17.5t17.5 -42.5t-17.5 -43t-42.5 -18zM528 622h-454q-15 0 -25 -10.5t-10 -24.5v-495q0 -15 10 -25t25 -10h86q0 -50 35.5 -85.5t85.5 -35.5t85.5 35.5t35.5 85.5h126q15 0 25 10t10 25v495q0 14 -10 24.5t-25 10.5zM281 -4q-25 0 -43 18t-18 43
t18 42.5t43 17.5t43 -17.5t18 -42.5t-18 -43t-43 -18z" />
    <glyph glyph-name="uniE608" unicode="&#xe608;" 
d="M483 495q0 14 9 23t23 9q13 0 22.5 -9t9.5 -23v-485q0 -13 -9.5 -22.5t-22.5 -9.5q-14 0 -23 9.5t-9 22.5v485zM332 495q0 14 9.5 23t22.5 9t22.5 -9t9.5 -23v-485q0 -13 -9.5 -22.5t-22.5 -9.5t-22.5 9.5t-9.5 22.5v485zM633 495q0 14 9.5 23t22.5 9q14 0 23 -9t9 -23
v-485q0 -13 -9 -22.5t-23 -9.5q-13 0 -22.5 9.5t-9.5 22.5v485zM899 653h-126h-46v40q0 23 -18.5 39.5t-45.5 16.5h-296q-27 0 -45.5 -16.5t-18.5 -39.5v-40h-46h-132q-13 0 -22.5 -9.5t-9.5 -23t9.5 -22.5t22.5 -9h68v-675q0 -26 18.5 -44.5t45.5 -18.5h516q26 0 45 18.5
t19 44.5v675h62q13 0 22.5 9t9.5 22.5t-9.5 23t-22.5 9.5zM367 685h296v-32h-296v32zM739 -85q-414 -1 -449 -1q-16 0 -24 9t-9 18v9v608q0 10 3 17t7.5 9.5t9.5 4t8 0.5h3h79h296h72h5q2 0 8.5 -1.5t11.5 -4.5t9 -9.5t4 -15.5v-306v-305q0 -14 -8.5 -22t-16.5 -9z" />
    <glyph glyph-name="uniE609" unicode="&#xe609;" 
d="M753 618q42 -30 75 -68t56.5 -82.5t36 -94t12.5 -99.5q0 -88 -33.5 -164.5t-90.5 -133.5t-133.5 -90.5t-163.5 -33.5t-163.5 33.5t-134 90.5t-90.5 133.5t-33 164.5q0 50 12 97.5t33.5 91t53.5 81t71 67.5q21 15 45 11.5t39 -23.5t11.5 -44.5t-23.5 -39.5
q-59 -43 -90.5 -106t-31.5 -135q0 -62 23.5 -117t64 -96t95.5 -65t117.5 -24t117.5 24t95.5 65t64.5 96t24 117q0 73 -33.5 138.5t-94.5 107.5q-21 14 -25.5 38.5t9.5 45.5q15 19 39 23.5t45 -9.5v0zM512 271q-25 0 -42.5 17.5t-17.5 41.5v357q0 25 17.5 43t42.5 18
t42.5 -18t17.5 -43v-357q0 -24 -17.5 -41.5t-42.5 -17.5v0zM512 271z" />
    <glyph glyph-name="uniE60A" unicode="&#xe60a;" 
d="M883 41q4 -14 7 -36t3 -44.5t-3.5 -42.5t-10.5 -30q-5 -7 -26 -13.5t-53 -12.5q-31 -5 -71 -11q-39 -5 -77.5 -8.5t-75.5 -5t-64.5 -1.5t-63.5 2t-75 5q-38 3 -76 7t-69 9.5t-53 10t-27 9.5q-9 7 -14.5 45t4.5 99q5 35 28 53.5t53 29t63 18.5t58 25q19 12 30 23
t15.5 22.5t4.5 23.5t-1 27q-2 23 -15 35t-28 26q-8 6 -13.5 17.5t-10.5 23.5q-6 13 -10 30q-2 2 -6 7q-3 5 -7 13.5t-9 25t-6.5 29t0.5 22.5q1 11 5 19q0 35 4 71q4 30 13 64.5t30 61.5q18 26 39.5 43t44.5 26t46.5 12.5t45.5 3.5q23 -2 38 -5.5t24 -8.5t16 -12.5t14 -14.5
h19q9 0 18 -2.5t17.5 -9.5t18.5 -20q24 -31 35 -67t16 -69q6 -37 7 -74q2 -5 3 -12t1.5 -17.5t-1.5 -25.5q-2 -21 -6.5 -32.5t-9.5 -17.5q-5 -7 -11 -10q-4 -17 -9 -30q-5 -12 -11 -24q-6 -11 -14 -17q-17 -15 -28.5 -24.5t-15.5 -32.5q-3 -15 -2 -29t8 -29t21.5 -28
t41.5 -23q23 -10 51.5 -17.5t54.5 -17t46.5 -25t28.5 -39.5zM555 74q3 6 0.5 13t-8 13t-12.5 13h-47q-7 -7 -11 -13q-4 -5 -6.5 -11t0.5 -12q7 -13 12 -25q5 -10 11 -16q-2 -9 -6 -26t-7.5 -35t-6 -33.5t-2.5 -23.5q0 -6 4.5 -13t10.5 -14.5t13 -12.5t12 -5t12 5t13.5 11.5
t11.5 14t5 13.5t-3 20q-3 15 -7 34q-4 18 -8 35.5t-7 27.5q6 5 12 14.5t14 25.5zM555 74z" />
    <glyph glyph-name="uniE60B" unicode="&#xe60b;" 
d="M861 148l-92 130q-24 192 -51 266q-13 36 -34 64t-42 42.5t-40 24t-31 12.5l-12 3q16 23 16 38q0 9 -7.5 14.5t-15.5 5.5h-76q-9 0 -16.5 -5.5t-7.5 -14.5q0 -7 4 -16.5t8 -15.5l5 -6q-5 -1 -13 -3t-30 -12t-41.5 -24.5t-41 -42.5t-34.5 -64q-12 -33 -24.5 -100.5
t-19 -115t-6.5 -50.5l-93 -130q0 -1 -4.5 0t-11 -1.5t-13 -5.5t-11.5 -11.5t-5 -20.5q0 -14 12 -27t40.5 -26t72 -24t112 -19.5t156.5 -13.5q87 5 155.5 13.5t112 19.5t72.5 24t40.5 26t11.5 27q0 19 -11.5 29t-22.5 10h-11zM439 -68q1 -4 2.5 -9.5t8 -19.5t14.5 -24.5
t21 -19t29 -8.5q24 0 42.5 21t25 38.5t6.5 21.5q-57 -5 -74 -5z" />
    <glyph glyph-name="uniE60C" unicode="&#xe60c;" 
d="M854 747h-683q-44 0 -75 -31t-31 -75v-683q0 -44 31 -75t75 -31h683q44 0 75 31t31 75v683q0 44 -31 75t-75 31zM694 96v289q-29 62 -77.5 97t-108.5 35q-61 0 -110.5 -36.5t-77.5 -100.5v-258q31 -23 73 -40q9 11 23 14.5t28 -2.5q16 -8 21.5 -24.5t-2 -33t-23.5 -22.5
t-32 2q-13 6 -19.5 18t-4.5 26q-47 18 -81 45q-56 7 -94 50t-38 102q0 47 26 85t67 56q34 83 98.5 131t145.5 48q85 0 150.5 -51.5t98.5 -139.5q39 -19 62.5 -56t23.5 -82q0 -63 -43.5 -107.5t-105.5 -44.5z" />
    <glyph glyph-name="uniE60D" unicode="&#xe60d;" 
d="M837 613v-101h-226v101h-209v-101h-226v101h-142v-708h956v708h-153zM444 56q-2 -7 -4 -12q-2 -2 -12 -5q-8 -3 -22 -6q-19 -4 -29 -5q-24 -3 -33 -4q-10 -2 -32 -4q-13 -1 -26 -1q-18 0 -41 3q-20 2 -45 6q-24 3 -39 6q-16 4 -20 7t-6 18t2 39q2 13 11 20q10 7 22 12
q12 3 26 7q15 4 23 10q8 4 13 9q5 4 6 9q2 4 2 9v11q-1 9 -6 13q-7 7 -12 10q-3 3 -6 8q-2 4 -4 9q-1 4 -4 11q-3 2 -5 3q-3 2 -5 5q-3 4 -5 10t-1 11q0 5 2 9t5 8q-1 14 1 28q2 12 6 25q4 14 12 24q7 10 16 17q10 7 19 10q8 4 18 5q10 2 19 2q11 0 21 -3q9 -2 19 -7
q9 -4 16 -9t12 -10q9 -12 14 -26t7 -27q2 -16 2 -30q2 -1 4 -4q1 -3 2 -7t1 -10q-2 -7 -4 -12q-3 -5 -6 -7q-3 -3 -7 -5q-1 -4 -4 -11q-2 -6 -4 -9q-2 -5 -5 -8q-4 -3 -7 -5t-5.5 -4.5t-3.5 -4.5q-2 -3 -3 -8t-0.5 -11t3 -12t8.5 -11q7 -5 17 -9q9 -4 21 -7q11 -2 22 -6
t19 -10t12 -16q2 -5 3 -14q1 -10 1 -17q0 -9 -1 -17zM900 71h-388v47h388v-47zM900 182h-388v47h388v-47zM900 293h-388v46h388v-46zM213 683h153v-140h-153v140zM649 683h154v-140h-154v140z" />
    <glyph glyph-name="uniE60E" unicode="&#xe60e;" 
d="M825 268h-188q-41 0 -69.5 -28.5t-28.5 -69.5v-188q0 -41 28.5 -69.5t69.5 -28.5h188q41 0 69.5 28.5t28.5 69.5v188q0 41 -28.5 69.5t-69.5 28.5zM859 -21q0 -12 -9 -21t-21 -9h-196q-12 0 -21 9t-9 21v195q0 12 9 21t21 9h196q12 0 21 -9t9 -21v-195zM933 594l-133 133
q-28 29 -69 29t-69 -29l-133 -133q-29 -28 -29 -69t29 -69l133 -133q28 -29 69 -29t69 29l133 133q29 28 29 69t-29 69zM891 504l-138 -138q-9 -9 -21.5 -9t-21.5 9l-138 138q-9 9 -9 21.5t9 21.5l138 138q9 9 21 9t21 -9l139 -139q9 -9 9 -21t-9 -21zM382 269h-188
q-41 0 -69.5 -28.5t-28.5 -69.5v-188q0 -41 28.5 -69.5t69.5 -28.5h188q41 0 69.5 28.5t28.5 69.5v188q0 41 -28.5 69.5t-69.5 28.5zM416 -20q0 -12 -9 -21t-21 -9h-196q-12 0 -21 9t-9 21v195q0 12 9 21t21 9h196q12 0 21 -9t9 -21v-195zM382 716h-188q-41 0 -69.5 -28.5
t-28.5 -69.5v-188q0 -41 28.5 -69.5t69.5 -28.5h188q41 0 69.5 28.5t28.5 69.5v188q0 41 -28.5 69.5t-69.5 28.5zM416 427q0 -12 -9 -21t-21 -9h-196q-12 0 -21 9t-9 21v195q0 12 9 21t21 9h196q12 0 21 -9t9 -21v-195z" />
    <glyph glyph-name="uniE60F" unicode="&#xe60f;" 
d="M945 621q-10 -1 -17 -1q-416 -1 -831 0q-7 0 -17 1q-16 -6 -16 -23v-2q36 -24 37 -26q118 -107 338 -308q40 -37 73 -37t74 37q247 227 335 306q1 1 39 28v2q0 17 -15 23zM696 259q-22 20 -42 -1q-8 -8 -47 -43q-46 -40 -95 -40t-95 41q-8 6 -64 57q-169 -139 -188 -154
q-6 -6 -101 -81v-35q0 -10 7 -17t17 -7h848q10 0 17 7t7 17v42q-149 118 -165 131q-59 48 -99 83zM64 536v-438q106 88 252 210q-132 120 -252 228zM960 105v431q-102 -92 -249 -226q175 -144 249 -205z" />
    <glyph glyph-name="uniE610" unicode="&#xe610;" 
d="M745 -198h-464q-48 0 -82 35t-34 84v764q0 50 34 84.5t82 34.5h464q48 0 82 -34.5t34 -84.5v-764q0 -49 -34 -84t-82 -35zM513 -151q19 0 32.5 14t13.5 34t-13.5 34t-32.5 14t-32.5 -14t-13.5 -34t13.5 -34t32.5 -14zM606 757h-186v-48h186v48zM768 661h-510v-668h510
v668z" />
    <glyph glyph-name="uniE611" unicode="&#xe611;" horiz-adv-x="1000" 
d="M410 241l-148 -148l-26 26l147 148l-41 41l-190 -189v0v0l-76 -236l236 76v0v1l189 189zM562 446l68 68l27 -26l-69 -68l92 -92l109 109l-159 159l-109 -109zM789 755l-105 -105l159 -159l105 105zM753 261q-27 0 -59 -16l-253 253q16 32 16 59q0 75 -60.5 136.5
t-136.5 61.5h-2l-18 -18q10 -9 25 -25q38 -37 44 -47t6 -35v-11q0 -30 -37.5 -67t-66.5 -37h-12h-9h-8q-4 0 -8 1.5t-6.5 2.5t-7 4.5t-8 6.5t-10.5 10l-12 12l-17 17q-11 11 -20 21q-18 -18 -18 -19q1 -76 61.5 -137t136.5 -61q27 0 58 16l254 -255q-16 -30 -16 -56
q0 -76 60.5 -137.5t136.5 -61.5h2l18 18l-25 25q-38 37 -44 47.5t-6 35.5v10q0 30 37.5 67.5t67.5 37.5h11h10q5 0 8 -0.5t7 -1.5t6.5 -2t7 -4.5t8 -6.5t10.5 -10l12 -13q6 -5 17 -16.5t20 -20.5l18 18q-1 76 -61.5 137t-136.5 61z" />
    <glyph glyph-name="uniE612" unicode="&#xe612;" 
d="M877 71l-257 257q30 69 15.5 147t-70.5 134t-134 70.5t-147 -15.5l123 -123q18 -19 18 -45.5t-18 -44.5l-46 -46q-18 -18 -44.5 -18t-45.5 18l-123 123q-30 -69 -15.5 -147t70.5 -134t134 -70.5t147 15.5l257 -257q19 -19 45.5 -19t45.5 19l45 45q19 19 19 45.5t-19 45.5
z" />
    <glyph glyph-name="uniE613" unicode="&#xe613;" 
d="M0 684h128v-640h-128v640zM192 684h64v-640h-64v640zM320 684h64v-640h-64v640zM512 684h64v-640h-64v640zM768 684h64v-640h-64v640zM960 684h64v-640h-64v640zM640 684h32v-640h-32v640zM448 684h32v-640h-32v640zM864 684h32v-640h-32v640zM0 -20h64v-64h-64v64z
M192 -20h64v-64h-64v64zM320 -20h64v-64h-64v64zM640 -20h64v-64h-64v64zM960 -20h64v-64h-64v64zM768 -20h128v-64h-128v64zM448 -20h128v-64h-128v64z" />
    <glyph glyph-name="uniE614" unicode="&#xe614;" 
d="M1024 111v504q0 81 -58 138.5t-139 57.5h-630q-81 0 -139 -57.5t-58 -138.5v-630q0 -82 58 -139.5t139 -57.5h630q72 0 126.5 46t67.5 116q-283 122 -397 176q-71 -86 -147.5 -129.5t-177.5 -43.5q-105 0 -169 56.5t-55 137.5q2 24 9.5 46t26.5 47t46.5 42t74.5 26t107 3
q23 -2 43 -4.5t40 -6.5t32.5 -7t33.5 -9.5t30.5 -9.5t35 -11.5t35.5 -11.5q35 64 57 139h-398v40h197v70h-240v44h240v102q0 2 1 4.5t6 7t13 4.5h98v-118h256v-44h-256v-70h209q-29 -116 -85 -213q27 -10 111 -36.5t155 -48.5l71 -21v0zM284 20q-36 0 -65 7.5t-46.5 19
t-30.5 26t-17.5 29.5t-7 28.5t0.5 23.5q7 34 42.5 62.5t92.5 28.5q131 0 284 -75q-55 -72 -120 -111t-133 -39z" />
    <glyph glyph-name="uniE615" unicode="&#xe615;" 
d="M695 476q-10 11 -25 11t-25 -11l-94 -94l-94 94q-10 11 -25 11t-25.5 -10.5t-10.5 -25.5t11 -25l58 -58h-57q-7 0 -7 -7v-58q0 -7 7 -7h107v-47h-107q-7 0 -7 -7v-58q0 -7 7 -7h107v-107q0 -15 10.5 -25t25.5 -10t25.5 10t10.5 25v107h107q7 0 7 7v58q0 7 -7 7h-107v47
h107q7 0 7 7v58q0 7 -7 7h-57l58 58q11 10 11 25t-11 25zM987 484q-36 85 -101.5 150.5t-150.5 100.5q-88 38 -184 38t-184 -38q-85 -35 -150.5 -100.5t-101.5 -150.5q-14 -35 -23 -71l-24 53q-9 21 -32 21q-8 0 -15 -3q-13 -6 -18.5 -20t0.5 -27l73 -165q1 -1 1 -2l1 -1
q0 -1 1 -2q0 -1 1 -2v-1h1l2 -2h1v-1l1 -1l1 -1l1 -1h1l2 -2v0q1 0 2 -1l4 -2h1l2 -1v0h2v-1h3v0h2h1h1h1h3v0h3q2 1 3 1h1q1 0 2 1v0q1 0 2 1h1h1l2 2v0l6 4l135 118q11 10 12 25t-9 26q-10 12 -27 12q-13 0 -23 -9l-64 -56q27 140 138.5 232.5t255.5 92.5
q109 0 201.5 -53.5t146.5 -146t54 -201.5t-54 -201.5t-146.5 -146.5t-201.5 -54q-148 0 -261 97q-10 8 -23 8q-17 0 -27 -12q-10 -11 -9 -26t12 -24q65 -55 144.5 -84.5t163.5 -29.5q96 0 184 37q85 36 150.5 101.5t101.5 150.5q37 88 37 184t-37 184zM987 484z" />
    <glyph glyph-name="uniE616" unicode="&#xe616;" 
d="M559 342l65 -41q4 2 9 8q40 26 61 43h-200v-103q21 7 65 20q15 6 23 8l-53 35zM494 432h157v-43h-157v43zM971 726q-13 2 -46 8l-379 68q-32 6 -64 0l-370 -68q-31 -6 -51 -8q-8 -2 -14 -12t-6 -23v-484q0 -47 24.5 -92.5t64.5 -89t90.5 -82t103 -68.5t101 -50t85.5 -27
q10 -2 21 0q36 7 83.5 27t98 50t100 68.5t87.5 82t61.5 89t23.5 92.5v484q0 13 -4 23t-10 12zM696 550v-198l6 5l30 -30l-74 -48q14 -8 38 -23q20 -13 31 -21l-35 -35q-7 6 -19 13q-61 43 -91 64q0 -8 2 -23q0 -15 2 -22q-21 -6 -57 -17q-25 -8 -39 -11q-1 -2 -7 -4
q-8 -2 -25 -10l-25 34q14 15 14 40v286h249zM184 628v-285h-27v296q0 11 11 13l339 57h5l-3 -27zM407 477l-46 -24q-15 26 -50 77q-5 9 -9 13l42 22q32 -43 63 -88zM481 134q-84 4 -120 51q-17 -13 -48 -49q-5 -7 -9 -11l-23 51q7 7 27 24q18 16 26 24v139h-49v49h99v-184
q34 -52 108 -51q118 -2 252 0q-1 -1 -2 -4t-2.5 -8.5t-3.5 -9.5q-4 -15 -7 -23h-155q-57 0 -93 2zM870 207q0 -36 -18 -70q-17 -33 -45 -64t-64 -56q-35 -26 -74 -47.5t-78 -37.5q-40 -15 -74 -23l-6 26q32 7 70 22t75 35.5t71 45.5t60 53q25 28 41 58q14 28 14 58v136h28
v-136zM494 511h157v-43h-157v43z" />
    <glyph glyph-name="uniE617" unicode="&#xe617;" 
d="M400 524q20 0 34 14l30 30v-300q0 -20 14 -34t34 -14t34 14t14 34v300l30 -30q14 -14 34 -14t34 14t14 34t-14 34l-112 112q-14 14 -34 14t-34 -14l-112 -112q-14 -14 -14 -34t14 -34t34 -14zM1021 221l-128 335q-5 14 -17.5 23t-27.5 9h-130q2 -10 2 -16q0 -51 -43 -80
h138l91 -240h-154q-20 0 -34 -14t-14 -34v-48h-384v48q0 20 -14 34t-34 14h-154l91 240h138q-43 29 -43 80q0 6 2 16h-130q-15 0 -27.5 -9t-17.5 -23l-128 -335q-3 -8 -3 -17v-304q0 -20 14 -34t34 -14h928q20 0 34 14t14 34v304q0 9 -3 17z" />
    <glyph glyph-name="uniE618" unicode="&#xe618;" 
d="M352 380q0 -20 14 -34l112 -112q14 -14 34 -14t34 14l112 112q14 14 14 34t-14 34t-34 14t-34 -14l-30 -30v300q0 20 -14 34t-34 14t-34 -14t-14 -34v-300l-30 30q-14 14 -34 14t-34 -14t-14 -34zM1021 221l-128 335q-5 14 -17.5 23t-27.5 9h-240v-96h207l91 -240h-154
q-20 0 -34 -14t-14 -34v-48h-384v48q0 20 -14 34t-34 14h-154l91 240h207v96h-240q-15 0 -27.5 -9t-17.5 -23l-128 -335q-3 -8 -3 -17v-304q0 -20 14 -34t34 -14h928q20 0 34 14t14 34v304q0 9 -3 17z" />
    <glyph glyph-name="uniE619" unicode="&#xe619;" 
d="M500 248l-217 110q-7 4 -15 0l-231 -110q-11 -4 -11 -16v-300q0 -11 9 -15l224 -123v0v-1v0h1v0v0v0v0h1v-1v0v0h1v0v0v0h1v0v0v0v-1h1v0v0v0v0h1v0v0v0h1v0v0v0v0h1v0v0v0h1v0v0h1v0v0v0v0h1v0v0v0h1v0v0v0h1v0v0v0v0h1v0v1v0h1v0v0v0v0h1v0v0v0h1v1v0v0v0h1v0v0v1h1
l224 123q9 4 9 15v300q0 12 -11 16zM275 323l49 -25l-188 -98l-55 31zM251 -163l-191 105v261l58 -32v-58l43 -20v54l90 -49v-261zM268 128l-86 47l190 99l84 -43zM998 248l-217 110q-7 4 -15 0l-231 -110q-11 -4 -11 -16v-300q0 -11 9 -15l224 -123v0v-1h1v0v0v0v0h1v0v-1
v0h1v0v0v0v0h1v0v0v0h1v-1v0v0v0v0h1v0v0v0h1v0v0v0h1v0v0v0v0h1v0v0h1v0v0v0h1v0v0v0h1v0v0v0h1v0v0v0h1v0v0v0v1h1v0v0v0v0h1v0v0v0v0h1v1v0v0h1v0v0v0v0l1 1v0l224 123q9 4 9 15v300q0 12 -11 16zM773 323l49 -25l-188 -98l-55 31zM749 -163l-191 105v261l58 -32v-58
l44 -20v54l89 -49v-261zM766 128l-86 47l190 99l85 -43zM754 678l-217 110q-7 4 -15 0l-231 -110q-11 -4 -11 -16v-300q0 -10 9 -15l224 -123v0v0h1v-1v0v0v0h1v0v0v0h1v-1v0v0v0h1v0v0v0v0h1v0v0v0h1v0v-1v0v0h1v0v0v0h1v0v0v0h1v0v0v0h1v0v0v0h1v0v0v0h1v0v0v0h1v0v0v1h1
v0v0v0v0h1v0v0v0v0h1v0v0v0v1h1v0v0v0h1v0v0v0v1h1v0v0l224 123q9 5 9 15v300q0 12 -11 16zM542 747l49 -24l-188 -98l-55 30zM506 262l-191 104v261l58 -32v-58l43 -20v54l90 -49v-260zM522 558l-86 48l190 98l85 -43z" />
    <glyph glyph-name="uniE61A" unicode="&#xe61a;" 
d="M848 748h-672q-46 0 -79 -33t-33 -79v-672q0 -46 33 -79t79 -33h672q46 0 79 33t33 79v672q0 46 -33 79t-79 33zM288 -36h-112v112h112v-112zM288 132h-112v112h112v-112zM288 300h-112v112h112v-112zM568 -36h-112v112h112v-112zM568 132h-112v112h112v-112zM568 300
h-112v112h112v-112zM848 -36h-112v112h112v-112zM848 132h-112v112h112v-112zM848 300h-112v112h112v-112zM848 580q0 -23 -16.5 -39.5t-39.5 -16.5h-560q-23 0 -39.5 16.5t-16.5 39.5v56q0 23 16.5 39.5t39.5 16.5h560q23 0 39.5 -16.5t16.5 -39.5v-56z" />
    <glyph glyph-name="uniE61B" unicode="&#xe61b;" 
d="M851 310l-326 195l-330 -195q-16 0 -27.5 -11t-11.5 -28v-272q0 -33 23 -55.5t55 -22.5h160v324h255v-324h162q33 0 56 22.5t23 55.5v272q0 17 -11.5 28t-27.5 11zM958 385l-144 93v101q0 12 -9 21t-22 9h-31q-12 0 -21 -9t-9 -21v-43l-179 116q-10 5 -21 4q-15 6 -28 -3
l-410 -269q-11 -7 -14.5 -20t3.5 -24l7 -11q7 -12 20.5 -15t24.5 4l393 257l209 -134q7 -11 21 -13l168 -108q12 -7 25.5 -4t20.5 14l7 11q7 11 3.5 24t-14.5 20z" />
    <glyph glyph-name="uniE61D" unicode="&#xe61d;" 
d="M948 445h-111q18 -18 18 -42.5t-18 -42.5l-9 -9q-17 -18 -42 -18t-42 18l-94 94h-259l-90 -91q-18 -17 -42 -17t-42 17l-9 9q-17 17 -17 41t16 41h-110q-14 0 -23.5 -9.5t-9.5 -23.5v-18q0 -11 8 -19t19 -8h51l40 -394q0 -32 22.5 -55t55.5 -23h522q33 0 56 23t23 55
l39 394h48q13 0 21.5 8.5t8.5 21.5v18q0 13 -8.5 21.5t-21.5 8.5zM364 4q0 -13 -8.5 -22t-21.5 -9h-18q-12 0 -21 9t-9 22v254q0 12 9 21t21 9h18q13 0 21.5 -9t8.5 -21v-254zM547 4q0 -13 -8.5 -22t-21.5 -9h-18q-13 0 -21.5 9t-8.5 22v254q0 12 8.5 21t21.5 9h18
q13 0 21.5 -9t8.5 -21v-254zM730 4q0 -13 -8.5 -22t-21.5 -9h-18q-13 0 -21.5 9t-8.5 22v254q0 12 8.5 21t21.5 9h18q13 0 21.5 -9t8.5 -21v-254zM244 380q9 -9 22.5 -9t23.5 9l231 232v0l234 -235q10 -10 23.5 -10t23.5 10l9 10q10 9 10 23t-10 23l-234 235
q-10 10 -23.5 10t-23.5 -10l-9 -9v-1l-10 10q-9 9 -22.5 9t-23.5 -9l-231 -232q-9 -10 -9 -23.5t9 -22.5z" />
    <glyph glyph-name="uniE61E" unicode="&#xe61e;" horiz-adv-x="1000" 
d="M78 491h262v262h-262v-262zM121 709h175v-174h-175v174zM383 491h262v262h-262v-262zM427 709h175v-174h-175v174zM689 753v-262h262v262h-262zM907 535h-174v174h174v-174zM78 185h262v262h-262v-262zM121 404h175v-175h-175v175zM383 185h262v262h-262v-262zM427 404
h175v-175h-175v175zM689 185h262v262h-262v-262zM733 404h174v-175h-174v175zM383 -121h262v262h-262v-262zM427 98h175v-175h-175v175z" />
    <glyph glyph-name="uniE61F" unicode="&#xe61f;" 
d="M539 508q43 0 73 31.5t30 75.5q0 50 -37 82q3 -12 3 -21q0 -30 -20.5 -51.5t-50 -21.5t-50 21.5t-20.5 51.5q0 8 2 17q-33 -32 -33 -78q0 -44 30 -75.5t73 -31.5zM535.5 644q28.5 0 49 20.5t20.5 50t-20.5 50.5t-49 21t-48.5 -21t-20 -50.5t20 -50t48.5 -20.5zM50 8
l166 -66q-6 12 -22.5 124t-30.5 215.5t-14 105.5zM725 -210l11 163l-372 -39zM838 688l-181 -28q17 -31 17 -67q0 -58 -39.5 -99t-95.5 -41t-95.5 41t-39.5 99q0 14 3 29l-223 -34q4 -95 30 -256t49.5 -274t24.5 -113l695 121q-44 45 -138 583q-7 38 -7 39zM315 347l295 44
l9 -33l-295 -43zM379 98l-11 38l363 53l11 -37zM356 206l-14 37l468 64l15 -37z" />
    <glyph glyph-name="uniE620" unicode="&#xe620;" 
d="M512 244v392q-107 0 -197 -52.5t-142.5 -142.5t-52.5 -196.5t52.5 -197t142.5 -142.5t196.5 -52t197 52t142.5 142.5t52 196.5q0 93 -41 175zM918 531q-49 98 -143 157.5t-207 59.5v-392z" />
    <glyph glyph-name="uniE621" unicode="&#xe621;" horiz-adv-x="1051" 
d="M67 800h-38v-930h1021v37l-982 2zM579 762q0 16 -11.5 27t-28.5 11h-118q-16 0 -27.5 -11t-11.5 -27v-776h197v776zM343 529q0 16 -11.5 27.5t-27.5 11.5h-118q-17 0 -28.5 -11.5t-11.5 -27.5v-543h197v543zM814 296q0 16 -11.5 27.5t-27.5 11.5h-118q-16 0 -27.5 -11.5
t-11.5 -27.5v-310h196v310zM1011 102h-118q-16 0 -27.5 -11t-11.5 -27v-78h196v78q0 16 -11.5 27t-27.5 11z" />
    <glyph glyph-name="uniE622" unicode="&#xe622;" 
d="M911 229h-752v-192h752q16 0 27.5 11.5t11.5 26.5v116q0 15 -11.5 26.5t-27.5 11.5zM680 306v115q0 16 -11.5 27t-27.5 11h-482v-192h482q16 0 27.5 11.5t11.5 27.5zM412 536v115q0 16 -11 27.5t-27 11.5h-215v-192h215q16 0 27 11t11 27zM116 690h-72v-780h939v78h-867
v702zM82 690z" />
    <glyph glyph-name="uniE623" unicode="&#xe623;" 
d="M771 239h-644q-14 0 -21 -7t-4 -17l108 -331q3 -10 14.5 -16.5t25.5 -6.5h644q14 0 21 6.5t4 16.5l-108 331q-3 10 -15 17t-25 7zM813 259q21 -13 29 -34l81 -249v396q0 3 -0.5 8t-4 17.5t-8 22t-14.5 17t-23 7.5h-169q-44 3 -69 -105h-389q-13 0 -22.5 -9t-9.5 -23v-36
h557q22 0 42 -12zM409 739q-95 0 -162.5 -67t-67.5 -162t67.5 -162.5t162.5 -67.5t162 67.5t67 162.5t-67 162t-162 67zM530 451q0 -7 -7 -7h-76v-23h54q7 0 7 -6v-19q0 -7 -7 -7h-184q-7 0 -7 7v19q0 6 7 6h54v23h-76q-7 0 -7 7v169q0 7 7 7h228q7 0 7 -7v-169zM490 594
h-163q-6 0 -6 -6v-105q0 -6 6 -6h163q7 0 7 6v105q0 6 -7 6z" />
    <glyph glyph-name="uniE624" unicode="&#xe624;" 
d="M512 -212q-159 0 -271.5 56t-112.5 136v108q0 -52 52 -91.5t139 -60t193 -20.5t193 20.5t139 60t52 91.5v-108q0 -80 -112.5 -136t-271.5 -56zM512 -20q-159 0 -271.5 56t-112.5 136v108q0 -52 52 -91.5t139 -60t193 -20.5t193 20.5t139 60t52 91.5v-108
q0 -80 -112.5 -136t-271.5 -56zM512 172q-159 0 -271.5 56t-112.5 136v108q0 -52 52 -91.5t139 -60t193 -20.5t193 20.5t139 60t52 91.5v-108q0 -80 -112.5 -136t-271.5 -56zM512 364q-159 0 -271.5 56t-112.5 136v64q0 80 112.5 136t271.5 56t271.5 -56t112.5 -136v-64
q0 -80 -112.5 -136t-271.5 -56z" />
    <glyph glyph-name="uniE625" unicode="&#xe625;" 
d="M343 577h338q19 0 29.5 14t6.5 32l-13 50q-4 15 -17.5 26t-29.5 11h-49q-3 0 -7 3t-5 6l-13 50q-3 16 -17 26.5t-30 10.5h-49q-16 0 -29.5 -10.5t-17.5 -26.5l-13 -50q0 -3 -4 -6t-8 -3h-48q-16 0 -30 -11t-18 -26l-12 -50q-5 -18 6 -32t30 -14zM826 662h-49
q-7 0 -12.5 -5.5t-5.5 -12.5l8 -38q6 -22 -7.5 -39.5t-37.5 -17.5h-421q-23 0 -36.5 17.5t-8.5 39.5l8 38q0 7 -5.5 12.5t-12.5 5.5h-48q-18 0 -30.5 -12.5t-12.5 -30.5v-722q0 -17 12.5 -29.5t30.5 -12.5h628q17 0 29.5 12.5t12.5 29.5v722q0 18 -12.5 30.5t-29.5 12.5z
M681 47h-338q-8 0 -13.5 5.5t-5.5 13t5.5 13t13.5 5.5h338q7 0 12.5 -5.5t5.5 -13t-5.5 -13t-12.5 -5.5zM681 144h-338q-8 0 -13.5 5t-5.5 12.5t5.5 13t13.5 5.5h338q7 0 12.5 -5.5t5.5 -13t-5.5 -12.5t-12.5 -5zM681 240h-338q-8 0 -13.5 5.5t-5.5 13t5.5 12.5t13.5 5h338
q7 0 12.5 -5t5.5 -12.5t-5.5 -13t-12.5 -5.5zM681 336h-338q-8 0 -13.5 5.5t-5.5 13t5.5 13t13.5 5.5h338q7 0 12.5 -5.5t5.5 -13t-5.5 -13t-12.5 -5.5zM681 433h-338q-8 0 -13.5 5t-5.5 12.5t5.5 13t13.5 5.5h338q7 0 12.5 -5.5t5.5 -13t-5.5 -12.5t-12.5 -5z" />
    <glyph glyph-name="uniE626" unicode="&#xe626;" 
d="M958 413l22 55l-60 38q4 25 0 51l61 38l-23 55l-69 -17q-15 21 -36 37l16 69l-55 23l-38 -60q-25 4 -51 0l-37 60l-55 -22l15 -69q-20 -15 -36 -36l-69 16l-22 -55l59 -38q-4 -25 0 -51l-60 -37l22 -55l69 15q16 -21 36 -36l-16 -69l55 -23l38 60q26 -4 51 0l38 -60
l55 22l-16 70q21 15 36 35zM718.5 455.5q-31.5 13.5 -44.5 45t0 63t45 44.5t63.5 0t44.5 -45t-0.5 -63.5t-45 -44.5t-63 0.5zM657 91v78l-92 15q-8 33 -25 61l53 77l-54 54l-76 -54q-29 17 -61 26l-16 91h-78l-15 -91q-33 -8 -61 -25l-76 53l-55 -54l53 -76q-17 -29 -25 -62
l-91 -15v-78l91 -16q8 -33 25 -62l-53 -75l54 -55l76 54q29 -18 62 -26l15 -91h78l16 91q33 9 61 26l77 -54l54 55l-54 76q17 29 25 61zM347.5 21q-44.5 0 -76 32t-31.5 76.5t31.5 76t76 31.5t76.5 -31.5t32 -76t-32 -76.5t-76.5 -32z" />
    <glyph glyph-name="uniE627" unicode="&#xe627;" 
d="M850 611h-355l128 130q23 23 49 24q27 0 49 -23zM923 579q27 0 42 -7.5t21 -18t6 -23.5q-1 -12 -3 -21q-2 -6 -13 -36q-15 -45 -21 -61l-22 -66q-11 -32 -18 -51q-13 -40 -32 -55t-47 -15h-508l13 -89h490q46 0 46 -41q0 -20 -9 -34t-36 -14h-508q-19 0 -33 9
q-12 8 -21 23q-9 14 -14 31q-5 15 -9 32q-1 8 -5 28l-11 57l-14 76l-15 85q-16 87 -42 222h-72q-15 0 -25 7q-9 8 -16 18q-6 10 -8.5 22t-2.5 22q0 20 13 33q13 12 36 12h97q20 0 31.5 -5.5t18.5 -14.5t10 -19l4 -17q2 -8 4 -22l4 -29q2 -11 6 -38h663zM759.5 18
q18.5 0 35.5 -7t29 -19t20 -29q7 -17 7 -36t-7 -35q-7 -17 -19.5 -29.5t-29.5 -19.5q-17 -8 -35 -8t-35 8q-16 7 -28.5 19.5t-19.5 29.5q-7 16 -7 35t7 36t19.5 29t28.5 19t34.5 7zM357 20q18 0 34.5 -7t28.5 -19t20 -29q7 -17 7 -36t-7 -35q-8 -17 -20 -29
q-12 -13 -28.5 -20.5t-34.5 -7.5q-19 0 -35.5 7.5t-29 20t-19.5 29t-7 35.5t7 36t19 29t29 19t36 7z" />
    <glyph glyph-name="uniE628" unicode="&#xe628;" 
d="M160 668h704q20 0 34 14t14 34t-14 34t-34 14h-704q-20 0 -34 -14t-14 -34t14 -34t34 -14zM934 620h-844l-90 -240q0 -53 37.5 -90.5t90.5 -37.5t90.5 37.5t37.5 90.5q0 -53 37.5 -90.5t90.5 -37.5t90.5 37.5t37.5 90.5q0 -53 37.5 -90.5t90.5 -37.5t90.5 37.5t37.5 90.5
q0 -53 37.5 -90.5t90.5 -37.5t90.5 37.5t37.5 90.5zM880 205q-5 0 -14 2h-1h-2q-1 0 -4 1q-1 0 -2 1q-14 3 -25 7v-236h-640v236q-11 -4 -25 -7q-1 -1 -2 -1q-3 -1 -4 -1h-2h-1q-9 -2 -14 -2q-8 -1 -16 -1q-16 0 -32 3v-323q0 -20 14 -34t34 -14h736q20 0 34 14t14 34v323
q-17 -3 -32 -3q-8 0 -16 1z" />
    <glyph glyph-name="uniE629" unicode="&#xe629;" 
d="M526 742q-120 0 -205.5 -85t-85.5 -205t85.5 -205t205.5 -85t205 85t85 205t-85 205t-205 85zM750 168q-101 -79 -224 -79q-124 0 -224 79q-90 -57 -146 -151t-65 -207q86 -11 219 -11h431q133 0 219 11q-8 113 -64.5 207t-145.5 151z" />
    <glyph glyph-name="uniE62A" unicode="&#xe62a;" 
d="M62 622v-668h33v34h34v-34h33v34h34v-34h33v34h33v-34h34v34h33v-34h33v33h33v-33h33v34h34v-34h33v34h33v-34h34v34h33v-34h34v34h33v-34h33v33h34v-33h33v34h33v-34h33v34h34v-34h33v34h33v-34h34v668h-900zM928 22h-832v566h832v-566zM863 538h-702q-13 0 -22.5 -9.5
t-9.5 -22.5v-403q0 -13 9.5 -22t22.5 -9h702q13 0 22.5 9t9.5 22v403q0 13 -9.5 22.5t-22.5 9.5zM878 117q0 -12 -8.5 -20.5t-21.5 -8.5h-672q-13 0 -21.5 8.5t-8.5 20.5v376q0 12 8.5 20.5t21.5 8.5h672q13 0 21.5 -8.5t8.5 -20.5v-376zM247 377h64q8 32 13 70l26 -4
q-6 -34 -13 -66h168v-22h-174q-5 -20 -12 -39h151v-21q-20 -50 -63 -86q43 -25 100 -36q-14 -15 -21 -25q-49 16 -98 47q-40 -26 -113 -50q-9 13 -18 23q74 19 111 41q-40 34 -57 86q-33 -83 -90 -137q-8 12 -16 21q68 62 100 176h-84v23q13 29 23 58l25 -7q-11 -27 -22 -52
zM443 295h-110q14 -42 55 -72q39 32 55 72zM396 426l14 17q29 -19 57 -39l-17 -20q-26 22 -54 42zM601 220l17 -18q-44 -27 -89 -51q-5 9 -13 21q49 23 85 48zM521 246h295v-19h-133v-40q0 -36 -36 -36h-40q-1 10 -4 24q23 -2 37 -2q20 0 20 19v35h-139v19zM543 385h76v28
h-92v19h283v-19h-93v-28h76v-85h-21v10h-208v-10h-21v85zM543 287h251v-18h-251v18zM564 328h55v39h-55v-39zM640 385h55v28h-55v-28zM640 328h55v39h-55v-39zM711 200l13 19q43 -21 90 -46l-14 -22q-48 28 -89 49zM772 367h-55v-39h55v39z" />
    <glyph glyph-name="uniE62B" unicode="&#xe62b;" horiz-adv-x="1515" 
d="M876 95q0 6 -4 12q-32 38 -52 65q12 24 19 44l88 13q5 1 9 6.5t4 11.5v105q0 7 -4 11.5t-9 5.5l-87 14q-7 19 -20 46q9 13 26 35q18 22 24 31q4 5 4 10q0 16 -82 92q-6 4 -12 4q-7 0 -12 -4l-67 -50q-24 12 -43 17l-13 88q-1 5 -6 9.5t-11 4.5h-107q-13 0 -17 -14
q-7 -26 -13 -88q-24 -8 -44 -18l-66 51q-5 4 -12 4q-10 0 -44.5 -33.5t-47.5 -50.5q-4 -5 -4 -12q0 -5 4 -11q32 -38 52 -66q-12 -23 -18 -43l-89 -14q-5 0 -9 -5.5t-4 -11.5v-106q0 -6 4 -11t10 -5l86 -14q7 -22 20 -47q-9 -12 -26.5 -34.5t-23.5 -30.5q-4 -6 -4 -11
q0 -15 82 -91q6 -5 12 -5q8 0 12 4l67 51q24 -12 43 -18l13 -87q1 -6 6 -10t11 -4h107q13 0 17 13q7 27 13 89q23 7 44 18l66 -52q5 -4 12 -4q11 0 45 34t47 51q4 4 4 11zM678 197q-43 -43 -103.5 -43t-103.5 43t-43 103.5t43 103.5t103.5 43t103.5 -43t43 -103.5
t-43 -103.5zM1221 65q-7 17 -17 30q29 65 29 79q0 2 -2 4q-69 40 -71 40l-4 -1q-23 -24 -52 -64q-12 1 -17.5 1t-17.5 -1q-7 12 -29 38.5t-27 26.5q-1 0 -17 -9q-16 -10 -33 -20q-18 -10 -20 -11q-3 -2 -3 -4q0 -14 29 -79q-9 -13 -17 -30q-85 -8 -85 -17v-80q0 -9 85 -18
q7 -15 17 -30q-29 -64 -29 -79q0 -2 3 -4q69 -40 70 -40q5 0 27 27t29 39q12 -2 17.5 -2t17.5 2q8 -12 29.5 -39t26.5 -27q1 0 71 40q2 2 2 4q0 15 -29 79q10 15 17 30q85 9 85 18v80q0 9 -85 17zM1138.5 -44q-21.5 -21 -52 -21t-52 21t-21.5 52q0 29 22 51t51.5 22
t51.5 -22t22 -51q0 -31 -21.5 -52zM1221 651q-7 16 -17 29q29 65 29 79q0 2 -2 4q-69 40 -71 40l-4 -1q-23 -24 -52 -64q-12 1 -17.5 1t-17.5 -1q-7 12 -29 38.5t-27 26.5q-1 0 -17 -9t-33 -19q-18 -11 -20 -12q-3 -2 -3 -4q0 -14 29 -79q-9 -13 -17 -29q-85 -9 -85 -18v-80
q0 -9 85 -18q7 -15 17 -30q-29 -64 -29 -78q0 -3 3 -4q69 -41 70 -41q5 0 27 27t29 39q12 -1 17.5 -1t17.5 1q8 -12 29.5 -39t26.5 -27q1 0 71 41q2 1 2 4q0 14 -29 78q10 15 17 30q85 9 85 18v80q0 9 -85 18zM1138.5 541.5q-21.5 -21.5 -52 -21.5t-52 21.5t-21.5 51.5
t22 51.5t51.5 21.5t51.5 -21.5t22 -51.5t-21.5 -51.5z" />
    <glyph glyph-name="uniE62C" unicode="&#xe62c;" 
d="M1014 362q-6 19 -21 26q-12 6 -37 14q-7 2 -8 3.5t0 7.5q0 33 -1 42q0 5 -1.5 15t-1.5 11q-1 6 3 7q7 3 20 9t15 7q17 7 23 25t-2 35q-11 20 -19 38.5t-25 26t-36 1.5q-8 -3 -22 -9.5t-16 -6.5q-2 -2 -4 0t-6 7t-7 7q-6 5 -47 41q12 33 13 35q8 19 -4 39q-8 13 -33 21
q-4 2 -15 5.5t-16 5.5q-17 6 -23 5q-11 -1 -14 -2q-20 -4 -28 -20q-5 -9 -14 -34q-2 -6 -3.5 -7t-7.5 -1h-45l-27 -3q-6 -1 -8 3q-2 5 -4.5 10t-5.5 11.5t-5 9.5q-9 18 -27.5 24t-33.5 -1q-8 -3 -21.5 -9.5t-18.5 -8.5q-29 -12 -34 -34q-3 -14 2 -25q2 -5 5 -11t6.5 -12.5
t4.5 -10.5q3 -5 -1 -8q-21 -15 -38 -36q-1 -1 -17 -20q-25 8 -27 9q-16 5 -23 6t-18 -2q-22 -5 -31 -28q-3 -7 -7.5 -20t-7.5 -19q-7 -19 -4 -31q6 -21 22 -28q8 -3 21 -8t17 -6q1 0 3.5 -0.5t3.5 -1.5t1 -4q0 -2 -0.5 -19.5t-0.5 -26.5q0 -4 0.5 -8t1.5 -9.5t1 -8.5
q1 -6 -2 -8q-2 -1 -29 -12q-19 -8 -26 -20q-11 -20 -3 -39q19 -39 23 -48q8 -16 24.5 -22t32.5 -1q14 5 38 16q3 2 7 -1q23 -23 35 -33q1 -2 25 -20q-11 -26 -12 -29q-5 -15 -5 -21q-1 -14 8 -27q9 -11 33 -19q29 -10 31 -11q21 -8 35 -4q20 6 28 21q6 12 16 38q2 6 8 5
q10 -1 14 -1q16 0 47 2q3 0 8 1q10 3 13 -3q13 -27 14 -30q8 -17 25.5 -24t34.5 0q22 8 53 24q15 7 21 22.5t0 30.5q-4 12 -16 34q-3 5 2 9q17 14 20 18q7 7 17.5 19.5t13.5 15.5t5 2q17 -5 28 -10q21 -8 37 -4q23 7 32 29q2 6 7 19t7 20q8 19 4 33zM833 403q-6 -29 -20 -53
q-15 -26 -38 -45q-24 -21 -48 -29q-17 -7 -35 -12q-4 -1 -15 -2q-23 -2 -28 -2q-16 1 -40 5q-34 7 -69 31q-33 24 -51 59q-5 11 -14 35t-6 63q1 6 8 33q5 20 20 43q18 26 44 46q21 15 45 23q25 9 42 10q34 2 41 2q8 -1 36 -8q28 -6 57 -26q27 -19 43 -44q13 -19 19 -35
q5 -11 9 -33q1 -2 4 -29q-4 -31 -4 -32zM426 1q-1 1 -27 11v30q0 6 -1 9q-2 6 -1 8t7 5q16 6 22 11q14 11 7 26q-9 22 -17 35q-3 6 -11.5 9.5t-14.5 1.5q-12 -4 -25 -10q-5 -2 -8 1q-14 14 -23 22q-1 0 -11 8q8 21 8 22q4 10 0 19t-13 13q-12 5 -26 9q-16 5 -22 3
q-15 -5 -20 -16q0 -2 -1.5 -5.5t-2.5 -5.5q-3 -9 -4 -10q0 -1 -5 -0.5t-6 0.5q-5 0 -40 -2q-8 16 -9 17q-11 24 -36 17q-5 -2 -31 -14q-9 -3 -13 -13t-1 -18q1 -2 11 -24l-3 -3q-23 -24 -27 -28.5t-8 -2.5q-8 2 -19 6q-9 3 -18.5 0t-14.5 -11q-8 -16 -13 -33q-7 -22 14 -32
q2 -1 25 -9q-1 -19 -1 -21t1 -19q1 -2 1 -3q3 -5 -3 -7q-13 -5 -22 -10q-7 -4 -10.5 -13.5t-0.5 -15.5q6 -15 15 -33q3 -6 11.5 -10t14.5 -3q11 4 23 9q7 2 8.5 2t6.5 -5q12 -11 28 -24q4 -3 2 -7q-1 -2 -3 -7.5t-3 -8.5q-8 -24 12 -34q8 -4 20 -7q2 -1 9.5 -3.5t9 -2.5
t9.5 1q13 3 17 11q4 7 9 22q3 6 8 5q10 -1 17 -1q3 0 16 1q1 0 4 0.5t5 0.5q3 0 4 -2q2 -3 5 -9l4 -8q8 -16 24 -16q9 -1 19 4q26 12 29 14q6 3 8.5 12t-0.5 15q-2 4 -5.5 11.5t-3.5 9.5q-2 4 1 7q18 14 28 29q3 4 8 2q5 -1 19 -6q11 -4 20.5 0.5t14.5 13.5l5 17q4 10 5 12
q4 9 0.5 18t-11.5 13zM300 -45q-19 -18 -45 -25q-22 -7 -41 -5q-51 6 -80 44q-14 19 -18 40q0 2 -3 20q1 44 34 75q17 17 44 25q22 7 45 4q47 -6 76 -42q14 -18 17 -36q4 -20 4 -25q0 -43 -33 -75zM693 -71q-8 2 -9 3.5t-1 9.5q0 3 -1 13q-1 6 3 6q2 1 5 2q17 8 11 22
q-1 3 -8 15q-5 9 -14 7q-3 0 -8.5 -2t-6.5 -2q-3 -1 -4 0q-3 2 -7 6l-6 6q-5 4 -5.5 6t2.5 8v1h1q5 13 -7 19q-7 4 -17 6q-7 2 -11 1q-8 -2 -13 -16q-2 -5 -6 -5q-8 1 -11 0q-14 -2 -19 11q-5 12 -19 8q-10 -4 -17 -7q-10 -5 -8 -16q0 -3 2 -7.5t3 -5.5q1 -3 -1 -4
q-7 -8 -15 -16q-2 -2 -4 -2l-12 4q-5 2 -11 -1t-8 -8q-1 -3 -5 -14q-6 -14 8 -20q1 0 14 -5v-27q-9 -4 -10 -4q-15 -6 -9 -20q3 -10 7 -15q8 -14 20 -7q5 3 9 3q3 1 6 -1q6 -5 16 -14q2 -2 1 -4q0 -1 -1 -3l-1 -3q-8 -16 8 -22q2 -1 6 -2.5t6 -1.5q19 -7 25 11q2 5 3.5 6
t7.5 1h12q7 1 8.5 0.5t4.5 -6.5v-1v-1q7 -13 17 -10q12 4 25 11q6 4 4 15q-1 5 -5 9q-2 3 1 7q10 9 11 10q6 9 15 4l2 -1q12 -3 16 2q11 12 12 28q0 10 -12 13zM617 -107q-16 -9 -33 -8q-41 1 -56 37q-8 17 -2 37q9 27 37 38q22 8 44.5 -0.5t32.5 -30.5q10 -20 3.5 -40.5
t-26.5 -32.5z" />
    <glyph glyph-name="uniE62D" unicode="&#xe62d;" 
d="M933 434q0 7 -5 12q-2 5 -5 8l-405 286q-4 3 -9 3l-230 5q-12 0 -15.5 -11.5t5.5 -18.5l105 -74l-50 -37q-2 0 -5 -2l-220 -159q-7 -5 -7 -14h-1v-280l7 -13l404 -287h1l2 -1q3 -2 8 -2t9 3l404 287q7 5 7 13v280v2zM332 714l171 -4l357 -252l-171 3zM495 -102l-371 263
v239l371 -264v-238zM513 166l-376 267l180 130l376 -267zM900 161l-371 -263v238l371 264v-239zM443 118l-283 201v-129l283 -201v129z" />
    <glyph glyph-name="uniE62E" unicode="&#xe62e;" 
d="M518 204l42 -41l-27 -27q-2 -2 -4.5 -6.5t-1.5 -16.5t12 -24l211 -210q1 -1 2.5 -2t6 -3t9.5 -3t11.5 0t13.5 5l105 103q2 3 4.5 7.5t1.5 17.5t-12 23l-209 207q-1 1 -3 2.5t-7 4t-10.5 4t-13 0t-14.5 -7.5l-28 -28l-44 44zM489 325l-227 223v69l-133 79l-66 -64l80 -128
l71 -1l224 -220zM124 -51q0 4 1 9.5t9.5 15t24.5 9.5q4 0 9.5 -1t14.5 -9.5t10 -23.5q-1 -3 -2 -8.5t-9.5 -14.5t-23.5 -10l-30 -30q2 -1 5 -3.5t13.5 -7.5t21 -6.5t25 2.5t28.5 15l404 433q5 -3 14 -8t38 -13t58 -8q9 0 24.5 1t53.5 14t67 37q5 4 13 11.5t26 32.5t28 52
t10.5 69t-17.5 85l-144 -140l-123 121l145 138l-11 5q-7 4 -29.5 9t-46 4.5t-59.5 -10.5t-70 -32q-3 -2 -7.5 -5.5t-16.5 -15.5t-22.5 -25.5t-21.5 -35t-16 -44.5q-1 -4 -2.5 -11t-3 -28t0.5 -42t12.5 -49t28.5 -52l-454 -373l-3 -3q-2 -2 -6.5 -9t-6 -14.5t-3 -19
t3.5 -22.5zM124 -51q0 -4 1.5 -9t10 -14.5t22.5 -9.5l-30 -30q-39 34 -43 52z" />
    <glyph glyph-name="uniE62F" unicode="&#xe62f;" 
d="M855 150q-49 24 -95 27q-11 32 40 98q24 27 37.5 69t15 88t-11 92t-36.5 81.5t-64.5 54t-91.5 11.5q-15 -2 -32 -9q48 -79 43.5 -186t-56.5 -163q-21 -28 -34 -54q10 -26 13 -57q40 -7 81 -26q38 -18 67 -55t43 -77t23 -77.5t11 -61.5l2 -24h178q0 43 -20 111
q-35 121 -113 158zM591 176q-53 25 -104 29q-11 35 44 108q30 32 45.5 86t11.5 112t-23 110.5t-61 88t-98 37.5h-1q-20 1 -38 -1q-47 -7 -86.5 -43.5t-61 -89t-27 -109t15 -108.5t64.5 -82q22 -39 25 -109q-56 0 -117 -29q-103 -50 -136 -230l-8 -65h702v1q-8 120 -58 207
q-36 62 -89 87zM384 182q-1 1 -3 2h3h2z" />
    <glyph glyph-name="uniE630" unicode="&#xe630;" 
d="M510 635q-104 0 -178 -72.5t-74 -175t74 -175t178.5 -72.5t178.5 72.5t74 175t-74 175t-179 72.5zM219 293v228h-10q40 85 121 138t180.5 53t180.5 -53t121 -138h-10v-228q49 0 83 33.5t34 80.5q0 32 -16 58.5t-44 41.5q-38 107 -133.5 175t-215 68t-215 -68t-133.5 -175
q-28 -15 -44 -41.5t-16 -58.5q0 -47 34 -80.5t83 -33.5zM763 162q-107 -98 -253 -98q-145 0 -251 97q-92 -46 -144 -125t-52 -184h898q0 105 -53 184.5t-145 125.5zM763 162z" />
    <glyph glyph-name="uniE632" unicode="&#xe632;" 
d="M616 331l132 135l32 -31l177 177l-127 127l-177 -178l32 -31l-132 -136zM790 136q-22 0 -42 -7q-145 134 -226 276q20 45 20 94q0 98 -69.5 167.5t-167.5 69.5q-14 0 -33 -3l181 -193l-54 -151l-159 -29l-167 179q-4 -21 -4 -40q0 -98 69 -167t167 -69q47 0 90 18
q154 -97 259 -236q-10 -27 -10 -55q0 -61 42.5 -103.5t103 -42.5t103.5 42.5t43 103.5q0 60 -43 103t-103 43zM799 -95q-32 0 -55 23t-23 55t23 54.5t55 22.5t55 -22.5t23 -54.5t-23 -55t-55 -23zM337 262l-194 -187q-26 -26 -26 -63.5t26 -63.5l51 -50q26 -27 63 -27t63 27
q13 13 34 35t65.5 67.5t73 75t27.5 26.5q-21 36 -48 66t-48.5 46.5t-44 28.5t-30.5 14.5t-12 4.5zM177.5 4.5q-6.5 6.5 -6.5 15.5t7 16l163 163q6 6 15.5 6t16 -6.5t6.5 -15.5t-7 -16l-162 -163q-7 -6 -16.5 -6t-16 6.5zM444 95l-163 -163q-6 -6 -15.5 -6t-16 6.5t-6.5 16
t6 15.5l163 163q7 7 16.5 7t16 -6.5t6.5 -16t-7 -16.5z" />
  </font>
</defs>
</svg>
